<?xml version="1.0" encoding="UTF-8"?>
<svg id="Capa_1" xmlns="http://www.w3.org/2000/svg" version="1.1" viewBox="0 0 64 64">
  <!-- Generator: Adobe Illustrator 29.6.1, SVG Export Plug-In . SVG Version: 2.1.1 Build 9)  -->
  <defs>
    <style>
      .st0 {
        fill: #bd9654;
      }

      .st0, .st1, .st2 {
        isolation: isolate;
      }

      .st2 {
        fill: #fff;
      }
    </style>
  </defs>
  <g>
    <path class="st2" d="M35.18,6.53c.06.43.1.89.11,1.35,13.24,1.55,23.55,12.85,23.55,26.51s-9.35,23.87-21.68,26.22c-1.62.31-3.3.48-5.01.48-.55,0-1.1-.02-1.66-.05-.93-.05-1.87-.17-2.78-.32-.38-.05-.74-.12-1.1-.21-12.07-2.56-21.15-13.29-21.15-26.11S14.64,10.7,26.83,8.22c.26-.41.55-.93.83-1.49-13.33,2.14-23.54,13.73-23.54,27.66s9.71,24.94,22.55,27.48c.35.08.7.15,1.05.19.9.16,1.82.26,2.75.3.56.03,1.11.05,1.68.05,1.7,0,3.34-.15,4.94-.44,13.11-2.33,23.08-13.81,23.08-27.59s-10.96-26.35-24.98-27.86Z"/>
    <path class="st2" d="M40.09,11.08c-1.59-.56-3.27-.94-5-1.14-.62-.07-1.25-.13-1.88-.15-.35-.02-.71-.03-1.07-.03-1.5,0-2.96.13-4.39.39h0c-.98.17-1.93.4-2.87.7-10.06,3.09-17.37,12.46-17.37,23.53,0,11.65,8.1,21.42,18.98,23.97l-.38-10.42h1.77c.29,3.44-.03,7.1-.13,10.68.91.17,1.83.29,2.78.35.12-3.69.29-7.54-.19-11.03h7.68l-.74,10.54c11.14-2.35,19.49-12.25,19.49-24.09,0-10.82-6.99-20.01-16.69-23.31ZM45.22,37.71s-6.58.77-7.15,8.68h-7.98c-.78-3.81-2.51-7.05-6.26-8.94-.16-.09-.31.13-.17.26,2.48,2.44,3.59,5.42,4.05,8.68h-1.66c-.13-1.84-.46-3.28-1.09-4.43-.04-.04-.06-.1-.1-.14-1.8-3.18-4.88-3.94-5.64-4.08-.02,0-.03,0-.04,0-.04,0-.07,0-.09-.02h-.04v-2.71h26.17v2.71Z"/>
  </g>
  <g class="st1">
    <path class="st0" d="M26.32,20.92c1.65-3.26,4.32-6.7,5.48-8.13.46-.56.84-1.2,1.08-1.88,1.75-4.89-1.38-8.28-2.41-9.23-.08-.07-.19.01-.15.11,1.13,3.12-2.23,7.93-2.23,7.93,0,0-1.44,1.74-4.83,6.74-5.78,8.51-1.51,15.37-1.51,15.37h6.1c-.39-.39-.72-.79-1.01-1.2-2-2.84-2.09-6.61-.53-9.71Z"/>
    <path class="st0" d="M39.36,12.99c-.05-.05-.15-.02-.14.06.15,1.25.59,7.16-4,10.62-5.15,3.88-5.89,8.16-5.89,8.16h5.42s.87-1.51,1.66-2.06,3.88-3.96,3.88-3.96c0,0,.32,4.6-1.27,6.02h2.69s6.49-9.7-2.36-18.84Z"/>
  </g>
</svg>