<?xml version="1.0" encoding="UTF-8"?>
<svg id="Capa_1" xmlns="http://www.w3.org/2000/svg" version="1.1" viewBox="0 0 72 72">
  <!-- Generator: Adobe Illustrator 29.6.1, SVG Export Plug-In . SVG Version: 2.1.1 Build 9)  -->
  <defs>
    <style>
      .st0 {
        fill: #bd9654;
      }

      .st0, .st1, .st2 {
        isolation: isolate;
      }

      .st2 {
        fill: #fff;
      }
    </style>
  </defs>
  <g>
    <path class="st2" d="M39.6,7.02c.07.49.11,1.01.12,1.54,15.06,1.77,26.79,14.61,26.79,30.16s-10.63,27.16-24.67,29.83c-1.85.36-3.76.54-5.7.54-.62,0-1.26-.02-1.89-.06-1.06-.06-2.12-.19-3.16-.37-.43-.06-.85-.13-1.26-.23-13.73-2.91-24.06-15.11-24.06-29.71S16.23,11.76,30.1,8.95c.3-.47.62-1.06.94-1.69-15.17,2.44-26.78,15.62-26.78,31.46s11.04,28.37,25.66,31.26c.4.09.8.17,1.19.21,1.02.18,2.07.3,3.12.35.63.03,1.27.06,1.91.06,1.93,0,3.8-.17,5.62-.5,14.91-2.65,26.26-15.72,26.26-31.38s-12.47-29.97-28.42-31.7Z"/>
    <path class="st2" d="M45.18,12.2c-1.81-.63-3.73-1.07-5.68-1.3-.7-.08-1.42-.14-2.14-.17-.4-.02-.81-.03-1.21-.03-1.7,0-3.37.15-4.99.45h-.01c-1.11.19-2.19.46-3.27.8-11.44,3.52-19.76,14.18-19.76,26.77,0,13.26,9.22,24.37,21.6,27.27l-.43-11.86h2.01c.33,3.91-.03,8.08-.15,12.15,1.03.19,2.08.33,3.16.4.13-4.19.33-8.58-.21-12.55h8.74l-.84,11.99c12.68-2.67,22.18-13.93,22.18-27.4,0-12.31-7.95-22.77-18.98-26.51ZM51.02,42.49s-7.48.88-8.13,9.88h-9.07c-.89-4.34-2.86-8.02-7.12-10.18-.18-.1-.35.14-.19.3,2.82,2.78,4.08,6.16,4.61,9.88h-1.89c-.15-2.09-.52-3.74-1.23-5.04-.04-.05-.07-.11-.11-.16-2.05-3.61-5.55-4.48-6.42-4.64-.02,0-.03-.01-.05-.01-.04-.01-.08-.01-.1-.02h-.05v-3.08h29.77v3.08Z"/>
  </g>
  <g class="st1">
    <path class="st0" d="M29.52,23.39c1.88-3.71,4.91-7.62,6.24-9.25.52-.64.95-1.36,1.23-2.14,1.99-5.56-1.56-9.42-2.74-10.5-.09-.08-.21.02-.17.13,1.28,3.55-2.54,9.03-2.54,9.03,0,0-1.63,1.98-5.5,7.66-6.58,9.68-1.71,17.49-1.71,17.49h6.94c-.44-.44-.82-.9-1.15-1.37-2.28-3.23-2.38-7.53-.6-11.05Z"/>
    <path class="st0" d="M44.36,14.37c-.06-.06-.17-.02-.16.06.17,1.42.68,8.15-4.55,12.08-5.86,4.42-6.7,9.29-6.7,9.29h6.16s.99-1.71,1.89-2.34,4.42-4.51,4.42-4.51c0,0,.36,5.23-1.44,6.85h3.07s7.39-11.04-2.69-21.43Z"/>
  </g>
</svg>